<svg width="1024" height="1024" viewBox="0 0 1024 1024" xmlns="http://www.w3.org/2000/svg">
  <!-- macOS rounded-square app-icon background, matching the app's dark theme
       (#161616). The white ChartMultitype glyph (Carbon icon, the same one in
       the app header) is centered and scaled from its 32x32 viewBox. -->
  <defs>
    <linearGradient id="bg" x1="0" y1="0" x2="0" y2="1">
      <stop offset="0" stop-color="#262626"/>
      <stop offset="1" stop-color="#161616"/>
    </linearGradient>
  </defs>
  <rect x="0" y="0" width="1024" height="1024" rx="228" ry="228" fill="url(#bg)"/>
  <!-- Glyph: 32x32 source scaled by 22 (=704px) and centered: (1024-704)/2 = 160 -->
  <g transform="translate(160,160) scale(22)" fill="#ffffff">
    <path d="M28 22H30V30H28zM24 18H26V30H24zM20 26H22V30H20zM9 16a7 7 0 107 7A7.0078 7.0078 0 009 16zm4.8989 6H10V18.1011A5.0145 5.0145 0 0113.8989 22zM9 28a5 5 0 01-1-9.8989V22a2 2 0 002 2h3.8989A5.0081 5.0081 0 019 28zM22.5352 12l4-6H30V4H25.4648l-4 6H18V2H16V14a2 2 0 002 2H30V14H18V12z"/>
    <circle cx="11" cy="7" r="1"/>
    <circle cx="9" cy="11" r="1"/>
    <circle cx="7" cy="5" r="1"/>
    <circle cx="5" cy="9" r="1"/>
    <circle cx="3" cy="13" r="1"/>
  </g>
</svg>
