<?xml version="1.0" encoding="UTF-8" standalone="no"?>
<svg
   id="Layer_4"
   version="1.1"
   viewBox="0 0 144.20618 140.00414"
   xml:space="preserve"
   sodipodi:docname="iconfinder_all2_01-03_5092484-002-with blue circle.svg"
   inkscape:export-filename="my-avatar-3000-3000.png"
   inkscape:export-xdpi="2880"
   inkscape:export-ydpi="2880"
   inkscape:version="1.4.2 (ebf0e940, 2025-05-08)"
   width="144.20618"
   height="140.00414"
   xmlns:inkscape="http://www.inkscape.org/namespaces/inkscape"
   xmlns:sodipodi="http://sodipodi.sourceforge.net/DTD/sodipodi-0.dtd"
   xmlns="http://www.w3.org/2000/svg"
   xmlns:svg="http://www.w3.org/2000/svg"><defs
     id="defs26" /><sodipodi:namedview
     id="namedview26"
     pagecolor="#505050"
     bordercolor="#eeeeee"
     borderopacity="1"
     inkscape:showpageshadow="0"
     inkscape:pageopacity="0"
     inkscape:pagecheckerboard="0"
     inkscape:deskcolor="#505050"
     inkscape:zoom="5.2355596"
     inkscape:cx="78.597138"
     inkscape:cy="74.872608"
     inkscape:window-width="1520"
     inkscape:window-height="929"
     inkscape:window-x="0"
     inkscape:window-y="40"
     inkscape:window-maximized="0"
     inkscape:current-layer="g26" /><style
     type="text/css"
     id="style1">
	.st0{fill:#00BA6E;}
	.st1{fill:#0056D5;}
	.st2{fill:#00B7FF;}
	.st3{fill:#99B2FB;}
	.st4{fill:#FFFFFF;}
	.st5{fill:#95EDFF;}
	.st6{fill:#B6FFC2;}
</style><g
     id="g26"
     transform="translate(21.774181,20.4151)"><ellipse
       style="fill:#0a1628;fill-opacity:1;stroke-width:1.318;stroke-dasharray:none"
       id="path26"
       cx="50.328907"
       cy="49.586967"
       rx="72.103088"
       ry="70.002068" /><g
       id="g6"><g
         id="g1"><path
           class="st1"
           d="m 23.7,68.5 h -5 c -0.9,0 -1.7,-0.8 -1.7,-1.7 0,-0.9 0.8,-1.7 1.7,-1.7 h 5 c 0.9,0 1.7,0.8 1.7,1.7 0,0.9 -0.8,1.7 -1.7,1.7 z"
           id="path1" /></g><g
         id="g2"><path
           class="st1"
           d="m 23.3,46.6 c -0.9,0 -1.7,-0.8 -1.7,-1.7 0,-0.9 0.8,-1.7 1.7,-1.7 0.9,0 1.7,-0.8 1.7,-1.7 0,-0.9 -0.8,-1.7 -1.7,-1.7 H 17 c -0.9,0 -1.7,-0.8 -1.7,-1.7 0,-0.9 0.8,-1.7 1.7,-1.7 h 6.4 c 2.8,0 5,2.3 5,5 0,3 -2.3,5.2 -5.1,5.2 z"
           id="path2" /></g><g
         id="g3"><path
           class="st2"
           d="m 67.5,90.3 c -0.8,0 -1.5,-0.6 -1.7,-1.5 L 63.7,73 c -0.1,-0.5 0.1,-0.9 0.3,-1.2 0.3,-0.4 0.7,-0.6 1.1,-0.7 0.9,-0.1 1.8,0.5 1.9,1.4 l 2.1,15.8 c 0.1,0.5 0,0.9 -0.3,1.3 -0.3,0.4 -0.7,0.6 -1.1,0.6 -0.1,0.1 -0.1,0.1 -0.2,0.1 z"
           id="path3" /></g><g
         id="g4"><path
           class="st2"
           d="m 34.3,90.3 c -0.9,0 -1.6,-0.7 -1.7,-1.5 l -0.7,-6.8 -8,0.5 c -0.3,0.1 -0.7,0.1 -1,0.1 -2.7,0 -5,-2.2 -5,-5 v -0.1 l 0.3,-5.4 -2,-4.5 C 16,67.2 16,66.9 16.1,66.5 l 1.3,-5.3 H 13 c -1.8,0 -3.4,-1.5 -3.4,-3.4 0,-0.5 0.1,-1 0.3,-1.4 l 4.5,-11.9 c 0,-1.1 -0.1,-4.1 -0.1,-4.4 0,-3.1 0.4,-6.1 1.2,-9 C 19,18.1 30.4,9.7 44.4,9.7 h 0.1 c 0.7,0 1.3,0 1.8,0 4.6,0.2 9,1.4 13.2,3.6 0.4,0.2 0.7,0.6 0.8,1 0.1,0.4 0.1,0.9 -0.1,1.3 -0.4,0.8 -1.5,1.1 -2.3,0.7 -3.7,-1.9 -7.7,-3 -11.8,-3.2 -0.5,0 -1.1,0 -1.7,0 -12.7,0 -22.5,7.3 -25.8,18.9 -0.7,2.6 -1.1,5.4 -1.1,8.1 0,0.4 0,4.4 0.1,4.6 L 17.5,45.3 13,57.9 h 6.6 c 0.5,0 1,0.2 1.3,0.6 0.3,0.4 0.4,0.9 0.3,1.4 l -1.7,6.8 2,4.3 c 0.1,0.3 0.2,0.5 0.2,0.8 l -0.4,5.7 c 0,1 1,1.8 2,1.6 h 0.3 l 9.7,-0.7 c 0.9,-0.1 1.7,0.6 1.8,1.5 l 0.9,8.4 c 0.1,0.9 -0.6,1.7 -1.5,1.8 -0.1,0.2 -0.2,0.2 -0.2,0.2 z M 64.4,20.2 c -0.4,0 -0.8,-0.2 -1.1,-0.4 -0.4,-0.3 -0.6,-0.7 -0.6,-1.1 -0.1,-0.4 0.1,-0.9 0.4,-1.2 0.6,-0.7 1.7,-0.8 2.4,-0.2 0,0 0,0 0,0 0.7,0.6 0.8,1.7 0.2,2.4 -0.3,0.3 -0.8,0.5 -1.3,0.5 z"
           id="path4" /></g><g
         id="g5"><path
           class="st2"
           d="m 33.4,81.9 c -0.9,0 -1.7,-0.8 -1.7,-1.7 0,-0.9 0.8,-1.7 1.7,-1.7 h 0.7 c 3.2,0 6.2,-1.6 8,-4.3 0.5,-0.8 1.6,-1 2.3,-0.5 0.8,0.5 1,1.6 0.5,2.3 -2.4,3.6 -6.5,5.8 -10.8,5.8 h -0.7 z"
           id="path5" /></g></g><g
       id="g7"><path
         class="st6"
         d="m 40,33.2 c 0,1.9 -1.5,3.4 -3.4,3.4 -1.9,0 -3.4,-1.5 -3.4,-3.4 0,-1.9 1.5,-3.4 3.4,-3.4 1.9,0 3.4,1.5 3.4,3.4 z"
         id="path6" /><path
         class="st0"
         d="m 36.7,38.2 c -2.8,0 -5,-2.3 -5,-5 0,-2.7 2.3,-5 5,-5 2.8,0 5,2.3 5,5 0,2.7 -2.2,5 -5,5 z m 0,-6.7 c -0.9,0 -1.7,0.8 -1.7,1.7 0,0.9 0.8,1.7 1.7,1.7 0.9,0 1.7,-0.8 1.7,-1.7 0,-0.9 -0.8,-1.7 -1.7,-1.7 z"
         id="path7" /></g><g
       id="g8"><path
         class="st1"
         d="m 55,45 c -0.9,0 -1.7,-0.8 -1.7,-1.7 v -3.4 c 0,-0.9 0.8,-1.7 1.7,-1.7 0.9,0 1.7,0.8 1.7,1.7 v 3.4 C 56.7,44.2 56,45 55,45 Z"
         id="path8" /></g><g
       id="g9"><path
         class="st1"
         d="m 61.8,45 c -0.9,0 -1.7,-0.8 -1.7,-1.7 v -3.4 c 0,-0.9 0.8,-1.7 1.7,-1.7 0.9,0 1.7,0.8 1.7,1.7 v 3.4 C 63.4,44.2 62.7,45 61.8,45 Z"
         id="path9" /></g><g
       id="g10"><path
         class="st1"
         d="m 55,31.5 c -0.9,0 -1.7,-0.8 -1.7,-1.7 v -3.4 c 0,-0.9 0.8,-1.7 1.7,-1.7 0.9,0 1.7,0.8 1.7,1.7 v 3.4 c 0,1 -0.7,1.7 -1.7,1.7 z"
         id="path10" /></g><g
       id="g11"><path
         class="st1"
         d="m 61.8,31.5 c -0.9,0 -1.7,-0.8 -1.7,-1.7 v -3.4 c 0,-0.9 0.8,-1.7 1.7,-1.7 0.9,0 1.7,0.8 1.7,1.7 v 3.4 c -0.1,1 -0.8,1.7 -1.7,1.7 z"
         id="path11" /></g><g
       id="g12"><path
         class="st1"
         d="m 66.8,39.9 h -3.4 c -0.9,0 -1.7,-0.8 -1.7,-1.7 0,-0.9 0.8,-1.7 1.7,-1.7 h 3.4 c 0.9,0 1.7,0.8 1.7,1.7 0,1 -0.8,1.7 -1.7,1.7 z"
         id="path12" /></g><g
       id="g13"><path
         class="st1"
         d="m 66.8,33.2 h -3.4 c -0.9,0 -1.7,-0.8 -1.7,-1.7 0,-0.9 0.8,-1.7 1.7,-1.7 h 3.4 c 0.9,0 1.7,0.8 1.7,1.7 0,0.9 -0.8,1.7 -1.7,1.7 z"
         id="path13" /></g><g
       id="g14"><path
         class="st1"
         d="M 53.4,39.9 H 50 c -0.9,0 -1.7,-0.8 -1.7,-1.7 0,-0.9 0.8,-1.7 1.7,-1.7 h 3.4 c 0.9,0 1.7,0.8 1.7,1.7 -0.1,1 -0.8,1.7 -1.7,1.7 z"
         id="path14" /></g><g
       id="g15"><path
         class="st1"
         d="M 53.4,33.2 H 50 c -0.9,0 -1.7,-0.8 -1.7,-1.7 0,-0.9 0.8,-1.7 1.7,-1.7 h 3.4 c 0.9,0 1.7,0.8 1.7,1.7 -0.1,0.9 -0.8,1.7 -1.7,1.7 z"
         id="path15" /></g><g
       id="g16"><rect
         class="st5"
         height="10.1"
         width="10.1"
         x="53.400002"
         y="29.799999"
         id="rect15" /><path
         class="st2"
         d="m 63.4,41.6 h -10 c -0.9,0 -1.7,-0.8 -1.7,-1.7 V 29.8 c 0,-0.9 0.8,-1.7 1.7,-1.7 h 10.1 c 0.9,0 1.7,0.8 1.7,1.7 v 10.1 c -0.1,0.9 -0.8,1.7 -1.8,1.7 z M 55,38.2 h 6.7 V 31.5 H 55 Z"
         id="path16" /></g><g
       id="g17"><path
         class="st1"
         d="m 88.6,33.2 h -8.4 c -0.9,0 -1.7,-0.8 -1.7,-1.7 0,-0.9 0.8,-1.7 1.7,-1.7 h 8.4 c 0.9,0 1.7,0.8 1.7,1.7 0,0.9 -0.7,1.7 -1.7,1.7 z m -15.1,0 c -0.9,0 -1.7,-0.8 -1.7,-1.7 0,-0.9 0.8,-1.7 1.7,-1.7 0.9,0 1.7,0.8 1.7,1.7 0,0.9 -0.8,1.7 -1.7,1.7 z"
         id="path17" /></g><g
       id="g18"><path
         class="st1"
         d="M 88.6,39.9 H 73.5 c -0.9,0 -1.7,-0.8 -1.7,-1.7 0,-0.9 0.8,-1.7 1.7,-1.7 h 15.1 c 0.9,0 1.7,0.8 1.7,1.7 0,1 -0.7,1.7 -1.7,1.7 z"
         id="path18" /></g><g
       id="g19"><path
         class="st1"
         d="m 88.6,46.6 c -0.9,0 -1.7,-0.8 -1.7,-1.7 0,-0.9 0.8,-1.7 1.7,-1.7 0.9,0 1.7,0.8 1.7,1.7 0,1 -0.7,1.7 -1.7,1.7 z m -6.7,0 H 68.5 c -0.9,0 -1.7,-0.8 -1.7,-1.7 0,-0.9 0.8,-1.7 1.7,-1.7 h 13.4 c 0.9,0 1.7,0.8 1.7,1.7 0,1 -0.8,1.7 -1.7,1.7 z"
         id="path19" /></g><g
       id="g20"><path
         class="st0"
         d="M 88.6,53.4 H 55 c -0.9,0 -1.7,-0.8 -1.7,-1.7 0,-0.9 0.8,-1.7 1.7,-1.7 h 33.6 c 0.9,0 1.7,0.8 1.7,1.7 0,0.9 -0.7,1.7 -1.7,1.7 z"
         id="path20" /></g><g
       id="g21"><path
         class="st1"
         d="m 88.6,60.1 h -8.4 c -0.9,0 -1.7,-0.8 -1.7,-1.7 0,-0.9 0.8,-1.7 1.7,-1.7 h 8.4 c 0.9,0 1.7,0.8 1.7,1.7 0,0.9 -0.7,1.7 -1.7,1.7 z m -15.1,0 c -0.9,0 -1.7,-0.8 -1.7,-1.7 0,-0.9 0.8,-1.7 1.7,-1.7 0.9,0 1.7,0.8 1.7,1.7 0,0.9 -0.8,1.7 -1.7,1.7 z m -6.7,0 H 53.4 c -0.9,0 -1.7,-0.8 -1.7,-1.7 0,-0.9 0.8,-1.7 1.7,-1.7 h 13.4 c 0.9,0 1.7,0.8 1.7,1.7 0,0.9 -0.8,1.7 -1.7,1.7 z"
         id="path21" /></g><g
       id="g22"><path
         class="st0"
         d="m 88.6,73.5 h -3.4 c -0.9,0 -1.7,-0.8 -1.7,-1.7 v -5 H 51.7 C 50.8,66.8 50,66 50,65.1 c 0,-0.9 0.8,-1.7 1.7,-1.7 h 33.6 c 0.9,0 1.7,0.8 1.7,1.7 v 5 h 1.7 c 0.9,0 1.7,0.8 1.7,1.7 -0.1,1 -0.8,1.7 -1.8,1.7 z"
         id="path22" /></g><g
       id="g23"><path
         class="st1"
         d="m 88.6,80.2 h -10 c -0.9,0 -1.7,-0.8 -1.7,-1.7 v -5 h -5 c -0.9,0 -1.7,-0.8 -1.7,-1.7 0,-0.9 0.8,-1.7 1.7,-1.7 h 6.7 c 0.9,0 1.7,0.8 1.7,1.7 v 5 h 8.4 c 0.9,0 1.7,0.8 1.7,1.7 -0.1,1 -0.8,1.7 -1.8,1.7 z"
         id="path23" /></g><g
       id="g24"><path
         class="st1"
         d="m 71.8,19.8 c -0.9,0 -1.7,-0.8 -1.7,-1.7 0,-0.9 0.8,-1.7 1.7,-1.7 h 5 v -5 C 76.8,11 77,10.5 77.3,10.2 77.6,9.9 78,9.7 78.5,9.7 h 3.4 c 0.9,0 1.7,0.8 1.7,1.7 0,0.9 -0.8,1.7 -1.7,1.7 h -1.7 v 5 c 0,0.5 -0.2,0.9 -0.5,1.2 -0.3,0.3 -0.7,0.5 -1.2,0.5 h -6.7 c 0.1,0 0.1,0 0,0 z M 88.6,13 c -0.9,0 -1.7,-0.8 -1.7,-1.7 0,-0.9 0.8,-1.7 1.7,-1.7 0.9,0 1.7,0.8 1.7,1.7 0,1 -0.7,1.7 -1.7,1.7 z"
         id="path24" /></g><g
       id="g25"><path
         class="st0"
         d="M 85.3,26.5 H 68.5 c -0.9,0 -1.7,-0.8 -1.7,-1.7 0,-0.9 0.8,-1.7 1.7,-1.7 h 15.1 v -5 c 0,-0.9 0.8,-1.7 1.7,-1.7 h 3.4 c 0.9,0 1.7,0.8 1.7,1.7 0,0.9 -0.8,1.7 -1.7,1.7 H 87 v 5 c 0,0.9 -0.8,1.7 -1.7,1.7 z"
         id="path25" /></g></g></svg>
